<svg xmlns="http://www.w3.org/2000/svg" width="512.001" height="512.001" viewBox="0 0 512.001 512.001">
  <g id="expert-route" opacity="0.23">
    <g id="Group_54" data-name="Group 54">
      <g id="Group_53" data-name="Group 53">
        <path id="Path_27" data-name="Path 27" d="M495.3,66.783H228.174a16.7,16.7,0,0,0-16.7,16.7v50.087h-61.19a82.661,82.661,0,0,0,16.668-50.087A83.478,83.478,0,1,0,0,83.478a82.621,82.621,0,0,0,33.391,66.694V495.3a16.7,16.7,0,0,0,16.7,16.7H116.87a16.7,16.7,0,0,0,16.7-16.7V400.7H361.742A16.716,16.716,0,0,0,378.435,384V333.913H495.3a16.7,16.7,0,0,0,16.7-16.7V83.478A16.7,16.7,0,0,0,495.3,66.783ZM100.174,384v94.609H66.783V165.267a83.978,83.978,0,0,0,33.391,0V384Zm-16.7-250.435c-26.63,0-50.087-21.574-50.087-50.087a50.087,50.087,0,0,1,100.174,0C133.565,111.954,110.135,133.565,83.478,133.565ZM133.565,367.3V166.957h77.913V317.218a16.754,16.754,0,0,0,9.229,14.934L291.015,367.3H133.565Zm211.478-10.319L298.9,333.913h46.146Zm133.566-56.463H244.87V100.174H478.609Z" fill="#ddd"/>
      </g>
    </g>
    <g id="Group_56" data-name="Group 56">
      <g id="Group_55" data-name="Group 55">
        <rect id="Rectangle_58" data-name="Rectangle 58" width="47.226" height="47.226" transform="translate(278.255 200.352) rotate(-45)" fill="#ddd"/>
      </g>
    </g>
    <g id="Group_58" data-name="Group 58">
      <g id="Group_57" data-name="Group 57">
        <rect id="Rectangle_59" data-name="Rectangle 59" width="47.226" height="47.226" transform="translate(378.427 200.351) rotate(-45)" fill="#ddd"/>
      </g>
    </g>
  </g>
</svg>
