<svg xmlns="http://www.w3.org/2000/svg" width="27.093" height="21.553" viewBox="0 0 27.093 21.553">
  <g id="list_1_" data-name="list (1)" transform="translate(0 0.001)">
    <path id="Path_21" data-name="Path 21" d="M0,5.995H5.995V0H0ZM1.588,1.588h2.82v2.82H1.588Zm0,0" fill="#fff"/>
    <path id="Path_22" data-name="Path 22" d="M149.3,0V5.995H168.49V0Zm17.6,4.407H150.885V1.588H166.9Zm0,0" transform="translate(-141.397)" fill="#fff"/>
    <path id="Path_23" data-name="Path 23" d="M0,153H5.995v-5.995H0ZM1.588,148.6h2.82v2.82H1.588Zm0,0" transform="translate(0 -139.229)" fill="#fff"/>
    <path id="Path_24" data-name="Path 24" d="M149.3,153H168.49v-5.995H149.3Zm1.588-4.408H166.9v2.82H150.885Zm0,0" transform="translate(-141.397 -139.229)" fill="#fff"/>
    <path id="Path_25" data-name="Path 25" d="M0,300.007H5.995v-6H0ZM1.588,295.6h2.82v2.82H1.588Zm0,0" transform="translate(0 -278.454)" fill="#fff"/>
    <path id="Path_26" data-name="Path 26" d="M149.3,300.007H168.49v-6H149.3Zm1.588-4.408H166.9v2.82H150.885Zm0,0" transform="translate(-141.397 -278.454)" fill="#fff"/>
  </g>
</svg>
