<?xml version="1.0" encoding="utf-8"?>
<!-- Generator: Adobe Illustrator 21.0.0, SVG Export Plug-In . SVG Version: 6.00 Build 0)  -->
<svg version="1.1" id="Layer_1" xmlns="http://www.w3.org/2000/svg" xmlns:xlink="http://www.w3.org/1999/xlink" x="0px" y="0px"
	 viewBox="0 0 1270.7 17.3" style="enable-background:new 0 0 1270.7 17.3;" xml:space="preserve">
<style type="text/css">
	.st0{fill:#FF8A5C;}
</style>
<title>Asset 1leaves</title>
<g id="Layer_2">
	<g id="Layer_1-2">
		<polyline class="st0" points="0,0 18.7,16 37.4,0 56.1,16 74.7,0 93.4,16 112.1,0 130.8,16 149.5,0 168.2,16 186.8,0 205.5,16 
			224.2,0 242.9,16 261.6,0 280.3,16 299,0 317.6,16 336.3,0 355,16 373.7,0 392.4,16 411.1,0 429.7,16 448.4,0 467.1,16 485.8,0 
			504.5,16 523.2,0 541.9,16 560.5,0 579.2,16 597.9,0 616.6,16 635.3,0 653.9,16 672.6,0 691.3,16 710,0 728.7,16 747.4,0 
			766.1,16 784.7,0 803.4,16 822.1,0 840.8,16 859.5,0 878.2,16 896.9,0 915.6,16 934.2,0 952.9,16 971.6,0 990.3,16 1009,0 
			1027.7,16 1046.4,0 1065,16 1083.7,0 1102.4,16 1121.1,0 1139.8,16 1158.5,0 1177.2,16 1195.9,0 1214.6,16 1233.3,0 1252,16 
			1270.7,0 		"/>
		<polyline class="st0" points="0,0 18.7,16 37.4,0 56.1,16 74.7,0 93.4,16 112.1,0 130.8,16 149.5,0 168.2,16 186.8,0 205.5,16 
			224.2,0 242.9,16 261.6,0 280.3,16 299,0 317.6,16 336.3,0 355,16 373.7,0 392.4,16 411.1,0 429.7,16 448.4,0 467.1,16 485.8,0 
			504.5,16 523.2,0 541.9,16 560.5,0 579.2,16 597.9,0 616.6,16 635.3,0 653.9,16 672.6,0 691.3,16 710,0 728.7,16 747.4,0 
			766.1,16 784.7,0 803.4,16 822.1,0 840.8,16 859.5,0 878.2,16 896.9,0 915.6,16 934.2,0 952.9,16 971.6,0 990.3,16 1009,0 
			1027.7,16 1046.4,0 1065,16 1083.7,0 1102.4,16 1121.1,0 1139.8,16 1158.5,0 1177.2,16 1195.9,0 1214.6,16 1233.3,0 1252,16 
			1270.7,0 		"/>
	</g>
</g>
</svg>
